<svg id="Layer_1" data-name="Layer 1" xmlns="http://www.w3.org/2000/svg" viewBox="0 0 5779.4 1555"><defs><style>.cls-1{fill:#ed2025;}.cls-2{fill:#ed2024;stroke:#ed2024;stroke-miterlimit:10;stroke-width:60px;}</style></defs><path class="cls-1" d="M670.08,275c-277.5,0-502.5,225-502.5,502.5s225,502.5,502.5,502.5,502.5-225,502.5-502.5S947.68,275,670.08,275Zm0,898.2c-218.5,0-395.7-177.2-395.7-395.7s177.2-395.7,395.7-395.7a393.58,393.58,0,0,1,210.2,60.4l-95.2,25.5-193.8,51.9-20.8,5.6h-.1a270.14,270.14,0,0,0-169.8,157l416.7-111.7,19.2-5.2c.1,0,.1.1.2.1l83.1-22.3c0-.1-.1-.1-.1-.2l57.5-15.4a393.79,393.79,0,0,1,88.7,249.7,401.1,401.1,0,0,1-4.9,62.4l-77,20.6-83.1,22.3L484.28,994.4a268.38,268.38,0,0,0,166.4,57.5,272,272,0,0,0,60.9-6.9l18-4.8,23.5-6.3c-1.3.4-2.7.9-4,1.3L943.68,983c.1-.1.1-.2.2-.2l76.1-20.4C953.68,1087.8,821.88,1173.2,670.08,1173.2Z"/><path class="cls-1" d="M919.68,766.2l39-10.5a268.5,268.5,0,0,0-27.8-104.1L420.78,788.3h0l-39,10.5a268.5,268.5,0,0,0,27.8,104.1l510.1-136.7Z"/><path class="cls-2" d="M1400.52,743.6h534.1c20.8,0,31.3,12.2,31.3,36.6s-10.4,36.6-31.3,36.6h-534.1V931.1q0,77.7,147.4,77.7h386.7q33.9,0,33.9,34.8,0,37.5-33.9,37.5h-389.4q-235.8,0-235.8-146.5V623.9q0-149.1,243.8-149.1h105.4c21.4,0,32.2,11.9,32.2,35.7q0,34.8-32.2,34.8H1588q-187.5,0-187.6,78.6V743.6Z"/><path class="cls-2" d="M2688.52,957.9q0,123.3-176.8,123.3h-359q-37.5,0-37.5-33.9,0-36.6,37.5-36.6H2526q75.9,0,75.9-52.7V930.3q0-51.75-85.7-51.8H2317q-196.5,0-196.5-117.9V730.2q0-113.4,186.7-113.4h99.1q36.6,0,36.6,34.8t-36.6,34.8h-118.8q-83.1,0-83.1,43.8v28.6q0,50.85,98.19,50.9h203.71q182.25,0,182.2,120.6Z"/><path class="cls-2" d="M2922.52,686.4v361.7q0,37.5-41.1,37.5-42.91,0-42.9-37.5V686.4h-41.1q-35.72,0-35.7-35.7,0-33.9,35.7-33.9h41.1V506.9q0-37.5,43.8-37.5,40.2,0,40.2,37.5V616.8h168.8q34.8,0,34.8,34.8t-34.8,34.8Z"/><path class="cls-2" d="M3842.52,851.6q0,38.4-38.4,38.4h-497.5v58.1q0,62.55,129.5,62.5H3529q35.7,0,35.7,34.8,0,35.7-35.7,35.7h-70.6q-235.8,0-235.81-143.8V758.7q0-142.05,233.11-142h190.2q196.5,0,196.5,124.1V851.6Zm-535.9-33.9h453.7V748.9q0-62.55-97.4-62.5h-226.8q-129.45,0-129.5,67Z"/><path class="cls-2" d="M4612.42,851.6q0,38.4-38.4,38.4h-497.5v58.1q0,62.55,129.5,62.5h92.9q35.7,0,35.7,34.8,0,35.7-35.7,35.7h-70.6q-235.81,0-235.8-143.8V758.7q0-142.05,233.09-142h190.21q196.5,0,196.5,124.1V851.6Zm-535.9-33.9h453.7V748.9q0-62.55-97.4-62.5H4206q-129.45,0-129.5,67v64.3Z"/><path class="cls-2" d="M5611.82,1048.1q0,37.5-42.9,37.5-42,0-42-37.5V753.4q0-66.9-136.7-67-162.6,0-162.61,78.6v283.1q0,37.5-41.1,37.5-43.8,0-43.79-37.5V765q0-78.6-162.61-78.6-138.44,0-138.39,67v294.7q0,37.5-42.9,37.5-41.1,0-41.1-37.5V763.2q0-146.4,222.39-146.5,166.06,0,207.21,75.9,45.6-75.9,202.7-75.9,221.55,0,221.5,146.5v284.9Z"/></svg>